<mxfile host="app.diagrams.net" modified="2021-03-17T22:49:08.792Z" agent="5.0 (Macintosh; Intel Mac OS X 10_15_7) AppleWebKit/605.1.15 (KHTML, like Gecko) Version/14.0 Safari/605.1.15" etag="6nW6l8h_-Q7Yil0UFRhW" version="14.4.8" type="github">
  <diagram id="C5RBs43oDa-KdzZeNtuy" name="Page-1">
    <mxGraphModel dx="1426" dy="842" grid="1" gridSize="10" guides="1" tooltips="1" connect="1" arrows="1" fold="1" page="1" pageScale="1" pageWidth="827" pageHeight="1169" math="0" shadow="0">
      <root>
        <mxCell id="WIyWlLk6GJQsqaUBKTNV-0" />
        <mxCell id="WIyWlLk6GJQsqaUBKTNV-1" parent="WIyWlLk6GJQsqaUBKTNV-0" />
        <mxCell id="WIyWlLk6GJQsqaUBKTNV-2" value="" style="rounded=0;html=1;jettySize=auto;orthogonalLoop=1;fontSize=11;endArrow=block;endFill=0;endSize=8;strokeWidth=1;shadow=0;labelBackgroundColor=none;edgeStyle=orthogonalEdgeStyle;" parent="WIyWlLk6GJQsqaUBKTNV-1" source="WIyWlLk6GJQsqaUBKTNV-3" target="WIyWlLk6GJQsqaUBKTNV-6" edge="1">
          <mxGeometry relative="1" as="geometry" />
        </mxCell>
        <mxCell id="WIyWlLk6GJQsqaUBKTNV-3" value="General House selling information" style="rounded=1;whiteSpace=wrap;html=1;fontSize=12;glass=0;strokeWidth=1;shadow=0;" parent="WIyWlLk6GJQsqaUBKTNV-1" vertex="1">
          <mxGeometry x="40" y="200" width="120" height="40" as="geometry" />
        </mxCell>
        <mxCell id="WIyWlLk6GJQsqaUBKTNV-4" value="" style="rounded=0;html=1;jettySize=auto;orthogonalLoop=1;fontSize=11;endArrow=block;endFill=0;endSize=8;strokeWidth=1;shadow=0;labelBackgroundColor=none;edgeStyle=orthogonalEdgeStyle;" parent="WIyWlLk6GJQsqaUBKTNV-1" source="WIyWlLk6GJQsqaUBKTNV-6" edge="1">
          <mxGeometry y="20" relative="1" as="geometry">
            <mxPoint as="offset" />
            <mxPoint x="370" y="220" as="targetPoint" />
          </mxGeometry>
        </mxCell>
        <mxCell id="-HZB0Hs7ptmqRgUpYktz-8" style="edgeStyle=orthogonalEdgeStyle;rounded=0;orthogonalLoop=1;jettySize=auto;html=1;entryX=0;entryY=0.5;entryDx=0;entryDy=0;" edge="1" parent="WIyWlLk6GJQsqaUBKTNV-1" source="WIyWlLk6GJQsqaUBKTNV-6" target="-HZB0Hs7ptmqRgUpYktz-6">
          <mxGeometry relative="1" as="geometry" />
        </mxCell>
        <mxCell id="-HZB0Hs7ptmqRgUpYktz-9" style="edgeStyle=orthogonalEdgeStyle;rounded=0;orthogonalLoop=1;jettySize=auto;html=1;entryX=0;entryY=0.5;entryDx=0;entryDy=0;" edge="1" parent="WIyWlLk6GJQsqaUBKTNV-1" source="WIyWlLk6GJQsqaUBKTNV-6" target="-HZB0Hs7ptmqRgUpYktz-7">
          <mxGeometry relative="1" as="geometry" />
        </mxCell>
        <mxCell id="WIyWlLk6GJQsqaUBKTNV-6" value="SQL database" style="rhombus;whiteSpace=wrap;html=1;shadow=0;fontFamily=Helvetica;fontSize=12;align=center;strokeWidth=1;spacing=6;spacingTop=-4;" parent="WIyWlLk6GJQsqaUBKTNV-1" vertex="1">
          <mxGeometry x="220" y="180" width="100" height="80" as="geometry" />
        </mxCell>
        <mxCell id="-HZB0Hs7ptmqRgUpYktz-4" style="edgeStyle=orthogonalEdgeStyle;rounded=0;orthogonalLoop=1;jettySize=auto;html=1;" edge="1" parent="WIyWlLk6GJQsqaUBKTNV-1" source="-HZB0Hs7ptmqRgUpYktz-0">
          <mxGeometry relative="1" as="geometry">
            <mxPoint x="220" y="220" as="targetPoint" />
          </mxGeometry>
        </mxCell>
        <mxCell id="-HZB0Hs7ptmqRgUpYktz-0" value="Reviews data" style="rounded=1;whiteSpace=wrap;html=1;fontSize=12;glass=0;strokeWidth=1;shadow=0;" vertex="1" parent="WIyWlLk6GJQsqaUBKTNV-1">
          <mxGeometry x="40" y="150" width="120" height="40" as="geometry" />
        </mxCell>
        <mxCell id="-HZB0Hs7ptmqRgUpYktz-3" style="edgeStyle=orthogonalEdgeStyle;rounded=0;orthogonalLoop=1;jettySize=auto;html=1;" edge="1" parent="WIyWlLk6GJQsqaUBKTNV-1" source="-HZB0Hs7ptmqRgUpYktz-2" target="WIyWlLk6GJQsqaUBKTNV-6">
          <mxGeometry relative="1" as="geometry">
            <Array as="points">
              <mxPoint x="220" y="280" />
            </Array>
          </mxGeometry>
        </mxCell>
        <mxCell id="-HZB0Hs7ptmqRgUpYktz-2" value="Demographic Data" style="rounded=1;whiteSpace=wrap;html=1;fontSize=12;glass=0;strokeWidth=1;shadow=0;" vertex="1" parent="WIyWlLk6GJQsqaUBKTNV-1">
          <mxGeometry x="40" y="260" width="120" height="40" as="geometry" />
        </mxCell>
        <mxCell id="-HZB0Hs7ptmqRgUpYktz-12" style="edgeStyle=orthogonalEdgeStyle;rounded=0;orthogonalLoop=1;jettySize=auto;html=1;entryX=0;entryY=0.5;entryDx=0;entryDy=0;" edge="1" parent="WIyWlLk6GJQsqaUBKTNV-1" source="-HZB0Hs7ptmqRgUpYktz-5" target="-HZB0Hs7ptmqRgUpYktz-11">
          <mxGeometry relative="1" as="geometry" />
        </mxCell>
        <mxCell id="-HZB0Hs7ptmqRgUpYktz-5" value="Preprocessing" style="rounded=1;whiteSpace=wrap;html=1;" vertex="1" parent="WIyWlLk6GJQsqaUBKTNV-1">
          <mxGeometry x="370" y="190" width="120" height="60" as="geometry" />
        </mxCell>
        <mxCell id="-HZB0Hs7ptmqRgUpYktz-6" value="Visualization" style="rounded=1;whiteSpace=wrap;html=1;" vertex="1" parent="WIyWlLk6GJQsqaUBKTNV-1">
          <mxGeometry x="370" y="260" width="120" height="60" as="geometry" />
        </mxCell>
        <mxCell id="-HZB0Hs7ptmqRgUpYktz-10" style="edgeStyle=orthogonalEdgeStyle;rounded=0;orthogonalLoop=1;jettySize=auto;html=1;entryX=0;entryY=0.5;entryDx=0;entryDy=0;" edge="1" parent="WIyWlLk6GJQsqaUBKTNV-1" source="-HZB0Hs7ptmqRgUpYktz-7" target="-HZB0Hs7ptmqRgUpYktz-11">
          <mxGeometry relative="1" as="geometry">
            <mxPoint x="650" y="220" as="targetPoint" />
          </mxGeometry>
        </mxCell>
        <mxCell id="-HZB0Hs7ptmqRgUpYktz-7" value="Clustering geography data" style="rounded=1;whiteSpace=wrap;html=1;" vertex="1" parent="WIyWlLk6GJQsqaUBKTNV-1">
          <mxGeometry x="370" y="120" width="120" height="60" as="geometry" />
        </mxCell>
        <mxCell id="-HZB0Hs7ptmqRgUpYktz-14" style="edgeStyle=orthogonalEdgeStyle;rounded=0;orthogonalLoop=1;jettySize=auto;html=1;" edge="1" parent="WIyWlLk6GJQsqaUBKTNV-1" source="-HZB0Hs7ptmqRgUpYktz-11" target="-HZB0Hs7ptmqRgUpYktz-13">
          <mxGeometry relative="1" as="geometry" />
        </mxCell>
        <mxCell id="-HZB0Hs7ptmqRgUpYktz-11" value="Traning" style="rhombus;whiteSpace=wrap;html=1;" vertex="1" parent="WIyWlLk6GJQsqaUBKTNV-1">
          <mxGeometry x="590" y="140" width="80" height="80" as="geometry" />
        </mxCell>
        <mxCell id="-HZB0Hs7ptmqRgUpYktz-15" style="edgeStyle=orthogonalEdgeStyle;rounded=0;orthogonalLoop=1;jettySize=auto;html=1;entryX=0.5;entryY=0;entryDx=0;entryDy=0;" edge="1" parent="WIyWlLk6GJQsqaUBKTNV-1" source="-HZB0Hs7ptmqRgUpYktz-13" target="-HZB0Hs7ptmqRgUpYktz-7">
          <mxGeometry relative="1" as="geometry">
            <Array as="points">
              <mxPoint x="750" y="100" />
              <mxPoint x="430" y="100" />
            </Array>
          </mxGeometry>
        </mxCell>
        <mxCell id="-HZB0Hs7ptmqRgUpYktz-16" value="Improve" style="edgeLabel;html=1;align=center;verticalAlign=middle;resizable=0;points=[];" vertex="1" connectable="0" parent="-HZB0Hs7ptmqRgUpYktz-15">
          <mxGeometry x="0.2526" y="-1" relative="1" as="geometry">
            <mxPoint x="28" as="offset" />
          </mxGeometry>
        </mxCell>
        <mxCell id="-HZB0Hs7ptmqRgUpYktz-17" style="edgeStyle=orthogonalEdgeStyle;rounded=0;orthogonalLoop=1;jettySize=auto;html=1;" edge="1" parent="WIyWlLk6GJQsqaUBKTNV-1" source="-HZB0Hs7ptmqRgUpYktz-13" target="-HZB0Hs7ptmqRgUpYktz-19">
          <mxGeometry relative="1" as="geometry">
            <mxPoint x="750" y="370" as="targetPoint" />
            <Array as="points">
              <mxPoint x="750" y="330" />
              <mxPoint x="750" y="330" />
            </Array>
          </mxGeometry>
        </mxCell>
        <mxCell id="-HZB0Hs7ptmqRgUpYktz-18" value="meet the expectation&amp;nbsp;" style="edgeLabel;html=1;align=center;verticalAlign=middle;resizable=0;points=[];" vertex="1" connectable="0" parent="-HZB0Hs7ptmqRgUpYktz-17">
          <mxGeometry x="-0.1412" y="1" relative="1" as="geometry">
            <mxPoint x="-1" y="-40" as="offset" />
          </mxGeometry>
        </mxCell>
        <mxCell id="-HZB0Hs7ptmqRgUpYktz-22" style="edgeStyle=orthogonalEdgeStyle;rounded=0;orthogonalLoop=1;jettySize=auto;html=1;entryX=1;entryY=0.5;entryDx=0;entryDy=0;" edge="1" parent="WIyWlLk6GJQsqaUBKTNV-1" source="-HZB0Hs7ptmqRgUpYktz-13" target="-HZB0Hs7ptmqRgUpYktz-21">
          <mxGeometry relative="1" as="geometry">
            <Array as="points">
              <mxPoint x="750" y="410" />
            </Array>
          </mxGeometry>
        </mxCell>
        <mxCell id="-HZB0Hs7ptmqRgUpYktz-13" value="Validation" style="rhombus;whiteSpace=wrap;html=1;" vertex="1" parent="WIyWlLk6GJQsqaUBKTNV-1">
          <mxGeometry x="710" y="140" width="80" height="80" as="geometry" />
        </mxCell>
        <mxCell id="-HZB0Hs7ptmqRgUpYktz-19" value="Final Report" style="rounded=1;whiteSpace=wrap;html=1;" vertex="1" parent="WIyWlLk6GJQsqaUBKTNV-1">
          <mxGeometry x="540" y="310" width="120" height="60" as="geometry" />
        </mxCell>
        <mxCell id="-HZB0Hs7ptmqRgUpYktz-21" value="Visualization the result" style="rounded=1;whiteSpace=wrap;html=1;" vertex="1" parent="WIyWlLk6GJQsqaUBKTNV-1">
          <mxGeometry x="540" y="380" width="120" height="60" as="geometry" />
        </mxCell>
      </root>
    </mxGraphModel>
  </diagram>
</mxfile>
